<svg width="494" height="295" viewBox="0 0 494 295" fill="none" xmlns="http://www.w3.org/2000/svg">
<path d="M400.489 218.883V246.738L395.806 244.687M400.489 218.883L375.513 208.785V214.551M400.489 218.883L395.806 222.053M395.806 222.053L389.562 219.712M395.806 222.053V224.395M375.513 214.551V218.756M375.513 214.551L380.196 215.809M395.806 244.687L375.513 237.679V218.756M395.806 244.687V224.395M375.513 218.756L380.196 215.809M380.196 215.809L389.562 219.712M389.562 219.712L393.464 222.834L395.806 224.395" stroke="#383838" stroke-width="0.7"/>
<path d="M434.831 233.948V260.297L429.562 258.358M434.831 233.948L406.733 224.395V229.849M434.831 233.948L429.562 236.946M429.562 236.946L422.538 234.731M429.562 236.946V239.161M406.733 229.849V233.827M406.733 229.849L412.001 231.04M429.562 258.358L406.733 251.728V233.827M429.562 258.358V239.161M406.733 233.827L412.001 231.04M412.001 231.04L422.538 234.731M422.538 234.731L426.928 237.685L429.562 239.161" stroke="#383838" stroke-width="0.7"/>
<path d="M434.831 266.414V296.201L429.562 294.008M434.831 266.414L406.733 255.615V261.781M434.831 266.414L429.562 269.803M429.562 269.803L422.538 267.3M429.562 269.803V272.307M406.733 261.781V266.278M406.733 261.781L412.001 263.126M429.562 294.008L406.733 286.513V266.278M429.562 294.008V272.307M406.733 266.278L412.001 263.126M412.001 263.126L422.538 267.3M422.538 267.3L426.928 270.638L429.562 272.307" stroke="#383838" stroke-width="0.7"/>
<path d="M400.489 251.949V280.59L395.806 278.482M400.489 251.949L375.513 241.565V247.494M400.489 251.949L395.806 255.209M395.806 255.209L389.562 252.801M395.806 255.209V257.616M375.513 247.494V251.818M375.513 247.494L380.196 248.788M395.806 278.482L375.513 271.276V251.818M395.806 278.482V257.616M375.513 251.818L380.196 248.788M380.196 248.788L389.562 252.801M389.562 252.801L393.464 256.011L395.806 257.616" stroke="#383838" stroke-width="0.7"/>
<path d="M468.391 250.151V275.907L463.903 274.346M468.391 250.151L441.074 238.443V243.898M468.391 250.151L463.903 250.995M463.903 250.995L456.879 248.78M463.903 250.995V259.517M441.074 243.898V253.273M441.074 243.898L450.44 247.029M463.903 274.346L441.074 265.777V253.273M463.903 274.346V259.517M441.074 253.273L450.44 247.029M450.44 247.029L456.879 248.78M456.879 248.78L460.586 254.053L463.903 259.517" stroke="#383838" stroke-width="0.7"/>
<path d="M468.003 281.273V310.249L463.643 308.493M468.003 281.273L441.466 268.102V274.239M468.003 281.273L463.643 282.223M463.643 282.223L456.819 279.731M463.643 282.223V291.81M441.466 274.239V284.786M441.466 274.239L450.564 277.761M463.643 308.493L441.466 298.852V284.786M463.643 308.493V291.81M441.466 284.786L450.564 277.761M450.564 277.761L456.819 279.731M456.819 279.731L460.421 285.664L463.643 291.81" stroke="#383838" stroke-width="0.7"/>
<path d="M198.34 279.029V308.688L205.364 306.422M198.34 279.029L222.535 270.444V275.127M198.34 279.029L205.364 281.371M205.364 281.371L209.267 279.952M205.364 281.371V285.273M222.535 275.127V279.81M222.535 275.127L218.243 276.688M205.364 306.422L222.535 300.883V279.81M205.364 306.422V285.273M222.535 279.81L218.243 276.688M218.243 276.688L209.267 279.952M209.267 279.952L207.706 282.151L205.364 285.273" stroke="#383838" stroke-width="0.7"/>
<path d="M250.633 264.2V293.859L257.658 291.593M250.633 264.2L274.829 255.615V260.298M250.633 264.2L257.658 266.542M257.658 266.542L261.56 265.123M257.658 266.542V270.444M274.829 260.298V264.981M274.829 260.298L270.536 261.859M257.658 291.593L274.829 286.054V264.981M257.658 291.593V270.444M274.829 264.981L270.536 261.859M270.536 261.859L261.56 265.123M261.56 265.123L259.999 267.322L257.658 270.444" stroke="#383838" stroke-width="0.7"/>
<path d="M305.269 250.151V279.81L312.293 277.544M305.269 250.151L329.464 241.565V246.248M305.269 250.151L312.293 252.492M312.293 252.492L316.196 251.073M312.293 252.492V256.395M329.464 246.248V250.931M329.464 246.248L325.171 247.809M312.293 277.544L329.464 272.005V250.931M312.293 277.544V256.395M329.464 250.931L325.171 247.809M325.171 247.809L316.196 251.073M316.196 251.073L314.635 253.273L312.293 256.395" stroke="#383838" stroke-width="0.7"/>
<path d="M304.878 217.625V245.468L312.13 243.341M304.878 217.625L329.854 209.565V213.961M304.878 217.625L312.13 219.823M312.13 219.823L316.158 218.491M312.13 219.823V223.487M329.854 213.961V218.358M329.854 213.961L325.423 215.427M312.13 243.341L329.854 238.141V218.358M312.13 243.341V223.487M329.854 218.358L325.423 215.427M325.423 215.427L316.158 218.491M316.158 218.491L314.547 220.556L312.13 223.487" stroke="#383838" stroke-width="0.7"/>
<path d="M144.486 292.553V320.396L151.284 318.269M144.486 292.553L167.901 284.493V288.889M144.486 292.553L151.284 294.751M151.284 294.751L155.061 293.419M151.284 294.751V298.414M167.901 288.889V293.285M167.901 288.889L163.747 290.355M151.284 318.269L167.901 313.069V293.285M151.284 318.269V298.414M167.901 293.285L163.747 290.355M163.747 290.355L155.061 293.419M155.061 293.419L153.55 295.484L151.284 298.414" stroke="#383838" stroke-width="0.7"/>
<path d="M160.095 158.832L159.865 157.451C159.514 155.342 160.041 153.182 161.323 151.472C161.545 151.176 161.788 150.896 162.049 150.634L163.998 148.686M163.998 148.686H169.461M163.998 148.686L162.836 147.137C162.097 146.152 161.889 144.867 162.278 143.699C162.384 143.383 162.531 143.082 162.716 142.804L163.998 140.881M169.461 148.686L171.022 151.027C172.049 153.081 172.583 155.345 172.583 157.64V158.832M169.461 148.686L170.642 146.324C170.892 145.824 171.022 145.273 171.022 144.714C171.022 143.759 170.643 142.843 169.968 142.168L168.681 140.881M163.998 140.881H168.681M163.998 140.881L163.695 139.669C163.409 138.523 163.873 137.322 164.855 136.667L164.91 136.631C165.333 136.349 165.831 136.198 166.339 136.198C166.848 136.198 167.346 136.349 167.769 136.631L167.824 136.667C168.806 137.322 169.27 138.523 168.984 139.669L168.681 140.881" stroke="#383838" stroke-width="0.7"/>
<path d="M28.9715 296.981L0.873535 306.347L9.45902 311.03M28.9715 296.981V286.834M28.9715 296.981L161.656 254.053M28.9715 286.834H27.4105V281.371H28.9715M28.9715 286.834L161.656 240.004M28.9715 281.371V271.224L76.5819 253.194M28.9715 281.371L161.656 236.883M160.876 221.273L171.803 228.297V241.566M160.876 221.273L161.656 236.883M160.876 221.273L126.534 234.278M171.803 241.566L168.681 243.126V249.37M171.803 241.566L206.925 229.202M171.803 262.639L161.656 261.858M171.803 262.639V259.517M171.803 262.639L168.681 268.102M161.656 261.858L9.45902 311.03M161.656 261.858V254.053M161.656 261.858V270.444M9.45902 311.03L18.825 315.526M161.656 236.883V240.004M161.656 240.004V254.053M161.656 254.053L168.681 256.395M269.365 207.224L242.048 216.839M269.365 207.224V199.419L274.829 198.638M269.365 207.224V210.346M269.365 213.468L168.681 249.37M269.365 213.468V216.839L274.829 215.125M269.365 213.468V210.346M168.681 249.37V256.395M76.5819 253.194V238.444L107.802 224.785M76.5819 253.194L126.534 234.278M126.534 216.59V234.278M126.534 216.59H206.925M126.534 216.59L107.802 224.785M206.925 216.59V229.202M206.925 216.59L222.535 223.708M206.925 229.202L222.535 223.708M222.535 223.708L225.019 222.834M88.2894 232.2V224.395L90.4635 218.597C92.1297 214.154 94.3385 209.933 97.0397 206.032C99.0072 203.19 101.226 200.531 103.671 198.086L107.021 194.736C112.21 190.585 117.823 186.993 123.766 184.022L124.192 183.809M124.192 183.809L133.558 179.906L143.705 176.784M124.192 183.809L120.096 189.271C118.148 191.868 116.437 194.635 114.985 197.539C113.84 199.83 112.859 202.199 112.049 204.628L110.924 208.004C109.367 213.194 108.346 218.529 107.876 223.927L107.802 224.785M143.705 176.784L152.29 176.004M143.705 176.784C147.342 173.667 151.217 170.84 155.297 168.33L159.315 165.857L156.193 161.955L160.095 158.833H172.583L176.486 161.955L172.583 165.077L180.388 169.76L185.852 173.662L188.974 176.784M188.974 176.784L180.388 176.004M188.974 176.784L199.901 179.906L207.706 183.028M180.388 176.004L180.029 177.08C179.778 177.836 179.071 178.345 178.275 178.345C178.123 178.345 177.973 178.327 177.826 178.29L176.864 178.049C175.584 177.729 174.381 177.157 173.325 176.365L171.803 175.223M180.388 176.004C178.312 172.889 175.933 169.988 173.287 167.341L171.022 165.077L166.339 162.735M166.339 162.735L161.656 165.077L156.973 169.76L153.851 173.662L152.29 176.004M166.339 162.735L163.095 169.223C162.139 171.136 161.395 173.148 160.876 175.223M166.339 162.735L168.442 165.89C169.12 166.906 169.704 167.983 170.185 169.107L170.88 170.729C171.489 172.149 171.803 173.678 171.803 175.223M152.29 176.004L152.631 176.515C153.393 177.658 154.677 178.345 156.051 178.345C157.141 178.345 158.187 177.912 158.958 177.141L160.876 175.223M160.876 175.223L162.185 177.405C162.846 178.507 163.918 179.301 165.164 179.612C165.936 179.805 166.743 179.805 167.514 179.612L168.305 179.415C169.062 179.226 169.753 178.834 170.304 178.283C170.776 177.811 171.132 177.235 171.343 176.601L171.803 175.223M207.706 183.028L214.73 186.931L214.901 187.028C218.423 189.041 221.761 191.358 224.877 193.955C228.514 197.072 231.906 200.465 235.023 204.102C237.617 207.733 239.813 211.634 241.574 215.735L242.048 216.839M207.706 183.028C210.816 186.138 213.533 189.618 215.796 193.39L217.072 195.516L220.974 204.102L223.316 211.907L224.096 216.59L225.019 222.834M225.019 222.834L242.048 216.839M274.829 198.638V186.931L284.195 183.028M274.829 198.638L349.757 174.443M284.195 183.028L268.585 174.443L284.195 168.739M284.195 183.028L349.757 160.394M349.757 144.784V160.394M349.757 144.784L339.61 148.491M349.757 144.784L351.318 145.589M479.319 225.175L489.466 216.839L473.075 208.386M479.319 225.175L486.344 228.297V235.322M479.319 225.175L349.757 160.394M486.344 235.322L489.466 236.883V245.858M486.344 235.322L349.757 174.443M486.344 254.834H489.466V245.858M486.344 254.834L349.757 191.614M486.344 254.834V314.152V357.86V364.104M200.681 352.396V324.298L189.754 319.615L185.754 318.282C182.185 317.092 178.508 316.258 174.776 315.792C170.209 315.221 165.59 315.204 161.018 315.742L158.534 316.034M200.681 352.396L185.071 356.485M200.681 352.396L192.096 347.713L185.852 344.591C180.681 342.523 175.216 341.281 169.659 340.91L166.339 340.689M200.681 352.396L349.757 311.03L486.344 364.104M135.119 369.567L133.558 373.941M135.119 369.567L138.861 361.668C141.025 357.099 144.128 353.037 147.966 349.747C151.34 346.855 155.22 344.613 159.411 343.134L166.339 340.689M135.119 369.567L185.071 356.485M133.558 373.941L116.387 369.124M133.558 373.941L145.266 377.226M116.387 369.124L122.711 355.78C125.244 350.434 128.588 345.512 132.625 341.187L133.288 340.477C136.059 337.507 139.185 334.89 142.596 332.683L143.479 332.112C148.267 329.014 153.61 326.872 159.213 325.804C164.441 324.809 169.806 324.766 175.05 325.677L178.526 326.282C182.878 327.039 187.139 328.247 191.239 329.888L200.681 333.664M116.387 369.124L52.3865 351.167L57.85 348.494L59.4109 343.811V339.908L58.6305 334.632M166.339 340.689L170.327 341.885C172.86 342.645 175.281 343.741 177.524 345.143L179.203 346.192C179.991 346.684 180.72 347.264 181.376 347.921C183.267 349.812 184.489 352.269 184.855 354.918L185.071 356.485M486.344 364.104V373.47M145.266 377.226L159.315 381.168L349.757 328.201L486.344 382.836V373.47M145.266 377.226L349.757 320.396L486.344 373.47M349.757 191.614V184.589M349.757 191.614L274.829 215.125M349.757 160.394V174.443M349.757 174.443V184.589M269.365 210.346L349.757 184.589M349.757 184.589L489.466 245.858M99.9969 354.488L107.021 357.86L111.687 350.862C115.851 344.615 120.622 338.796 125.93 333.487L129.656 329.762L132.753 327.38C137.425 323.785 142.616 320.92 148.148 318.882L150.945 317.852C153.394 316.949 155.942 316.339 158.534 316.034M99.9969 354.488L100.098 354.323C104.698 346.821 110.165 339.887 116.387 333.664L120.665 329.716C124.554 326.126 128.975 323.159 133.771 320.921L133.994 320.817C136.819 319.499 139.764 318.454 142.789 317.698C145.993 316.897 149.27 316.424 152.57 316.285L158.534 316.034M99.9969 354.488L58.6305 334.632M168.681 268.102L274.829 234.278V224.701M168.681 268.102L161.656 270.444M274.829 215.125V224.701M171.803 259.517V256.395H168.681M171.803 259.517L274.829 224.701M18.825 315.526L161.656 270.444M18.825 315.526L58.6305 334.632M284.195 168.739L295.902 164.461M284.195 168.739V121.369M341.171 85.4657L284.195 108.1V113.564M341.171 85.4657L387.22 108.881L388.001 112.003M341.171 85.4657V90.1487M388.001 112.003H384.098M388.001 112.003L391.123 112.783L394.245 115.125V119.808M384.098 112.003L382.538 115.125M384.098 112.003L351.318 95.3142M341.171 90.1487L351.318 95.3142M341.171 90.1487L315.805 100.685L290.439 111.222M290.439 111.222H288.097H286.536L285.756 112.003L284.195 113.564M290.439 111.222H295.122L295.902 113.564V119.808M284.195 113.564V121.369M295.902 164.461L322.829 154.622M295.902 164.461V127.613M322.829 154.622L326.259 153.369M322.829 154.622V141.662M322.829 134.637L324.781 132.296L326.259 131.704M322.829 134.637V141.662M322.829 134.637L295.902 119.808M334.927 150.202L331.805 151.343M334.927 150.202L339.61 148.491M334.927 150.202V143.223M331.805 151.343V131.775M331.805 151.343L326.259 153.369M331.805 131.775L328.683 130.735L326.259 131.704M331.805 131.775L333.366 132.296L334.407 133.857M326.259 153.369V131.704M322.829 141.662L295.902 127.613M295.902 127.613V119.808M284.195 121.369L256.097 106.539L287.317 94.5764M339.61 74.5388V53.4653M339.61 74.5388L391.903 101.798M339.61 74.5388L313.463 84.5576L287.317 94.5764M339.61 53.4653L320.098 61.6197M339.61 53.4653L359.903 64.6718M287.317 94.5764V75.3192L295.902 71.7313M394.245 119.808L412.977 112.783L398.928 105.46M394.245 119.808V130.735M382.538 115.125L351.318 127.613M382.538 115.125V124.491M351.318 127.613V119.808M351.318 127.613V136.601M351.318 95.3142V97.9537M339.61 148.491L339.724 140.881M351.318 145.589V136.601M351.318 145.589L352.879 146.394M351.318 97.9537L348.976 94.5764H345.854L340.391 96.3927L340.355 98.7342M351.318 97.9537V103.417M340.355 98.7342L301.366 113.564L329.464 129.174L339.983 123.613M340.355 98.7342L339.983 123.613M351.318 103.417L368.488 113.564L351.318 119.808M351.318 103.417V119.808M339.983 123.613L339.862 131.704M334.407 133.857L334.927 134.637V143.223M334.407 133.857L339.862 131.704M339.862 131.704L339.724 140.881M334.927 143.223L339.724 140.881M351.318 136.601L366.147 130.848M382.538 124.491V134.637M382.538 124.491L366.147 130.848M352.879 146.394L366.147 141.134M352.879 146.394L367.236 153.799M382.538 134.637L366.147 141.134M382.538 134.637V146.394M382.538 161.691L394.245 167.729M382.538 161.691L367.236 153.799M382.538 161.691V146.394M394.245 167.729V154.93M394.245 167.729L409.074 175.377M366.147 141.134V130.848M394.245 130.735L418.44 120.588M394.245 130.735V141.662M418.44 120.588V99.5147M418.44 120.588L470.734 148.111M418.44 99.5147L402.83 106.539M418.44 99.5147L437.953 110.29M473.075 166.638L492.588 159.613L470.734 148.111M473.075 166.638V208.386M473.075 166.638V161.174L470.734 158.833L466.051 158.052M473.075 208.386L461.368 202.348M461.368 202.348V171.321M461.368 202.348L418.44 180.208M466.051 158.052V155.711L419.221 131.515M466.051 158.052L464.49 159.093M461.368 171.321L430.928 183.028V185.37L430.708 173.662M461.368 171.321V162.229M418.44 180.208V171.321M418.44 180.208L409.074 175.377M430.708 173.662L461.368 162.229M430.708 173.662L430.575 166.638M461.368 162.229V161.955L463.709 159.613L464.49 159.093M367.236 153.799L382.538 146.394M394.245 141.662L419.221 131.515M394.245 141.662V146.394M419.221 131.515V136.198M464.49 159.093L419.221 136.198M419.221 136.198L394.245 146.394M394.245 146.394V154.93M394.245 154.93L418.44 144.784M418.44 144.784V143.223L422.343 141.134H426.245L430.148 144.003L430.28 151.028M418.44 144.784V171.321M430.28 151.028L446.538 160.394L430.575 166.638M430.28 151.028L430.575 166.638M418.44 171.321L409.074 175.377M470.734 148.111V128.393L462.148 123.652M391.903 101.798V99.5147M391.903 101.798L398.928 105.46M391.903 99.5147L398.928 96.3927M391.903 99.5147V87.0267M398.928 96.3927V105.46M398.928 96.3927H437.953M437.953 96.3927V110.29M437.953 96.3927L447.319 101.227M437.953 110.29L462.148 123.652M462.148 123.652V108.881L456.685 106.061M456.685 106.061V101.076L455.904 96.3927L453.563 90.9292L450.441 85.4657L444.197 79.2217L438.994 76.0997M456.685 106.061L447.319 101.227M421.562 61.2703L423.904 62.8313L422.343 65.1728L428.975 71.8049M421.562 61.2703V56.5873L418.44 55.0263L420.001 54.2458V51.1238V48.0018L418.44 46.4408L416.879 48.0018V54.2458L414.538 57.3678V61.2703M421.562 61.2703H414.538M414.538 61.2703L412.977 62.8313L414.538 65.1728M414.538 65.1728L407.6 71.4167M414.538 65.1728H415.318M390.342 81.4817L391.903 82.3437V87.0267M390.342 81.4817L394.245 77.6607L398.147 75.4307M390.342 81.4817L384.098 78.0335M447.319 101.227L446.538 94.0512L444.977 87.0267L442.636 82.3437L438.994 76.0997M438.994 76.0997L436.392 74.5388L429.367 72.1973L428.975 71.8049M391.903 87.0267L393.464 83.1242L398.147 75.4307M398.147 75.4307L399.708 74.5388L406.733 72.1973L407.6 71.4167M407.6 71.4167H411.416M411.416 71.4167L412.196 72.9778L415.935 70.7348M411.416 71.4167L415.318 65.1728M420.782 71.4167L419.221 73.7582H416.879L416.099 70.6363L415.935 70.7348M420.782 71.4167L423.123 72.9778H425.465L424.997 72.1973M420.782 71.4167L419.221 65.1728H420.782L424.997 72.1973M415.935 70.7348L416.879 65.1728H415.318M424.997 72.1973L428.975 71.8049M295.902 71.7313V62.0508L301.366 59.2309M295.902 71.7313L320.098 61.6197M320.098 49.5628V61.6197M320.098 49.5628H359.903M320.098 49.5628L310.732 54.3968M359.903 49.5628V64.6718M359.903 49.5628L368.443 54.2458M359.903 64.6718L384.098 78.0335M384.098 78.0335V62.8313L378.405 59.7093M378.405 59.7093L377.854 53.4653L376.293 47.2213L373.171 40.9773L366.928 33.9528L361.464 30.3105M378.405 59.7093L368.443 54.2458M350.537 25.3673L359.903 29.2698L361.464 30.3105M350.537 25.3673L343.513 19.1233M350.537 25.3673L346.635 24.5868M343.513 19.1233L345.074 16.0013L342.732 15.2208M343.513 19.1233L346.635 24.5868M343.513 19.1233L340.391 17.5623M342.732 15.2208V10.5378L341.171 8.97684M342.732 15.2208L339.61 13.6598L336.488 15.2208M341.171 8.97684L341.952 5.85485L341.171 3.51335M341.171 8.97684H338.049M341.171 3.51335V1.17186L339.61 0.391357L338.049 1.17186V3.51335M341.171 3.51335H338.049M338.049 3.51335L337.269 5.85485L338.049 8.97684M338.049 8.97684L336.488 10.5378V15.2208M336.488 15.2208L334.147 16.0013L335.708 19.1233L328.683 25.3673M328.683 25.3673L319.317 29.2698M328.683 25.3673H332.586M319.317 29.2698L312.293 33.9528L306.829 40.9773L302.927 48.7823L301.366 54.2458V59.2309M319.317 29.2698L314.634 38.6358L312.293 45.6603L310.732 54.3968M301.366 59.2309L310.732 54.3968M332.586 25.3673L338.049 17.855M332.586 25.3673L334.147 26.9283L337.269 25.3673M346.635 24.5868L345.074 26.9283L341.952 25.3673M341.952 25.3673V21.4648L340.391 17.5623M341.952 25.3673L339.61 27.7088L337.269 25.3673M340.391 17.5623L338.83 16.7818L338.049 17.855M338.049 17.855L337.269 22.2453V25.3673M368.443 54.2458L367.708 48.0018L366.928 43.3188L365.367 38.6358L363.806 34.7333L361.464 30.3105" stroke="#383838" stroke-width="0.7"/>
<path d="M36.0402 206.943L31.4419 209.518L36.0402 207.515H39.2016L42.3629 204.654L45.5243 201.507L47.2486 200.648H45.5243L41.7881 202.937L42.6503 198.646L42.3629 190.349H41.7881L40.6385 194.64L39.2016 202.365L36.0402 206.943Z" stroke="#383838" stroke-width="0.7"/>
<path d="M67.6537 183.196H55.8743C55.7135 183.196 55.5831 183.326 55.5831 183.487C55.5831 183.644 55.7072 183.773 55.8639 183.778L63.1192 184.036C63.4401 184.047 63.736 184.212 63.9146 184.479L64.3904 185.19C64.6242 185.539 64.6148 185.997 64.367 186.336L62.829 188.441C62.6842 188.639 62.8258 188.918 63.0713 188.918H64.4685C64.6712 188.918 64.8691 188.856 65.036 188.741L71.3247 184.407C71.5778 184.233 71.436 183.836 71.1297 183.861L68.8033 184.054L71.6025 178.759C71.6469 178.676 71.6312 178.572 71.5639 178.505C71.4716 178.413 71.3195 178.424 71.2402 178.527L67.6537 183.196Z" stroke="#383838" stroke-width="0.7"/>
<path d="M83.7478 131.696L81.4486 132.841L80.5865 132.555L80.8739 131.696L85.4722 129.408H89.4957L91.7949 130.266L96.3932 126.547L97.2311 126.713C97.4755 126.762 97.5575 127.07 97.3696 127.234L95.531 128.835H98.0293C98.2274 128.835 98.305 129.092 98.1399 129.202L97.8302 129.408L96.6806 130.266L92.0823 134.271L90.0705 134.558L88.3461 134.271L90.1231 132.06C90.42 131.691 90.3904 131.157 90.0544 130.822C89.8807 130.649 89.6454 130.552 89.4002 130.552H87.1965L83.7478 131.696Z" stroke="#383838" stroke-width="0.7"/>
<path d="M218.577 133.579L213.979 136.154L218.577 134.151H221.739L224.9 131.29L228.061 128.143L229.786 127.284H228.061L224.325 129.573L225.187 125.282L224.9 116.985H224.325L223.176 121.276L221.739 129.001L218.577 133.579Z" stroke="#383838" stroke-width="0.7"/>
<path d="M250.191 109.832H238.411C238.251 109.832 238.12 109.962 238.12 110.123C238.12 110.28 238.244 110.409 238.401 110.414L245.656 110.672C245.977 110.683 246.273 110.848 246.452 111.115L246.928 111.826C247.161 112.175 247.152 112.633 246.904 112.972L245.366 115.077C245.221 115.275 245.363 115.554 245.608 115.554H247.006C247.208 115.554 247.406 115.492 247.573 115.377L253.862 111.043C254.115 110.869 253.973 110.472 253.667 110.497L251.34 110.69L254.14 105.395C254.184 105.312 254.168 105.208 254.101 105.141C254.009 105.049 253.857 105.06 253.777 105.163L250.191 109.832Z" stroke="#383838" stroke-width="0.7"/>
<path d="M266.285 58.3324L263.986 59.4769L263.124 59.1908L263.411 58.3324L268.009 56.0436H272.033L274.332 56.9019L278.93 53.1825L279.768 53.3493C280.013 53.398 280.095 53.7061 279.907 53.8698L278.068 55.4714H280.566C280.765 55.4714 280.842 55.7285 280.677 55.838L280.367 56.0436L279.218 56.9019L274.619 60.9074L272.608 61.1935L270.883 60.9074L272.66 58.6962C272.957 58.3266 272.928 57.7926 272.592 57.4581C272.418 57.2851 272.183 57.188 271.937 57.188H269.734L266.285 58.3324Z" stroke="#383838" stroke-width="0.7"/>
</svg>
