<svg width="79" height="79" viewBox="0 0 79 79" fill="none" xmlns="http://www.w3.org/2000/svg">
<path d="M19.75 0C8.84238 0 0 8.84238 0 19.75C0 30.6578 8.84238 39.5 19.75 39.5C8.84238 39.5 0 48.3422 0 59.25C0 70.1578 8.84238 79 19.75 79C30.6578 79 39.5 70.1578 39.5 59.25C39.5 70.1578 48.3422 79 59.25 79C70.1578 79 79 70.1578 79 59.25C79 48.3422 70.1578 39.5 59.25 39.5C70.1578 39.5 79 30.6578 79 19.75C79 8.84238 70.1578 0 59.25 0C48.3422 0 39.5 8.84238 39.5 19.75C39.5 8.84238 30.6578 0 19.75 0Z" fill="#6FCF97"/>
</svg>
